<svg xmlns="http://www.w3.org/2000/svg" viewBox="0 0 40 40">
  <rect width="40" height="40" rx="9" fill="#0f1117"/>
  <defs>
    <linearGradient id="og" x1="0%" y1="0%" x2="100%" y2="100%">
      <stop offset="0%" stop-color="#fb923c"/>
      <stop offset="100%" stop-color="#ea580c"/>
    </linearGradient>
  </defs>
  <path fill="url(#og)" d="M17.46,10.85 L18.42,7.10 L21.58,7.10 L22.54,10.85 L24.68,11.73 L28.00,9.76 L30.24,12.00 L28.27,15.32 L29.15,17.46 L32.90,18.42 L32.90,21.58 L29.15,22.54 L28.27,24.68 L30.24,28.00 L28.00,30.24 L24.68,28.27 L22.54,29.15 L21.58,32.90 L18.42,32.90 L17.46,29.15 L15.32,28.27 L12.00,30.24 L9.76,28.00 L11.73,24.68 L10.85,22.54 L7.10,21.58 L7.10,18.42 L10.85,17.46 L11.73,15.32 L9.76,12.00 L12.00,9.76 L15.32,11.73 Z"/>
  <circle cx="20" cy="20" r="5.5" fill="#0f1117"/>
  <circle cx="20" cy="20" r="2.5" fill="url(#og)"/>
</svg>
